<svg xmlns="http://www.w3.org/2000/svg" width="1818.644" height="1081.207" viewBox="0 0 1818.644 1081.207"><g transform="translate(-333.074 -185.166)"><path d="M1137.953 1172.525c-10.133-.893-16.188-3.595-18.627-8.313-1.11-2.147-1.937-7.35-2.468-15.552-1.112-17.139-1.775-18.279-14.352-24.657-11.988-6.08-12.563-6.794-25.868-32.132-11.815-22.5-25.146-42.76-43.038-65.412-11.443-14.488-20.142-23.784-50.53-54-39.274-39.05-41.776-42.108-42.785-52.273-.344-3.461.687-12.659 3.05-27.227 4.836-29.799 5.604-37.424 5.59-55.5-.022-30.203-6.956-64.118-17.314-84.687l-3.534-7.018 7.518-8.898c4.135-4.893 10.23-12.936 13.544-17.871 10.907-16.243 25.94-48.709 33.814-73.026 3.231-9.981 3.074-9.865 12.335-9.093 18.94 1.58 46.969 9.21 62.518 17.019l9.018 4.529.814 4.772c.448 2.625.793 12.873.767 22.773-.073 27.31-3.667 42.04-19.276 79-9.525 22.555-9.817 23.623-15.574 57-7.026 40.734-8.591 52.844-8.593 66.5 0 16.392 1.925 26.967 8.571 47 8.63 26.012 24.178 52.987 57.96 100.56 12.51 17.615 15.933 21.667 28.103 33.262 17.418 16.596 24.635 24.91 28.874 33.263 6.254 12.323 17.482 20.029 41.186 28.268 13 4.518 14.9 5.55 19.942 10.816 5.022 5.246 8.185 11.31 9 17.256.977 7.128-.08 9.43-5.432 11.85-4.446 2.009-6.467 2.141-35.713 2.335-17.05.113-34.825-.132-39.5-.544m632 .028c-13.118-.545-16.266-.993-20.487-2.918-12.134-5.533-14.87-13.17-12.142-33.909 1.624-12.343 1.183-15.773-2.705-21.043-2.939-3.983-5.344-5.846-14.166-10.97-10.883-6.323-11.757-7.6-19.112-27.926-9.896-27.345-17.783-43.416-37.968-77.362-10.214-17.177-17.917-27.575-35.905-48.467-6.63-7.7-13.076-15.321-14.325-16.936l-2.271-2.937 2.29-2.215c1.26-1.219 10.644-7.773 20.854-14.564 20.953-13.938 37.268-22.907 38.833-21.348.552.55 2.836 9.383 5.076 19.63 7.338 33.56 19.174 62.953 35.701 88.656 2.93 4.557 7.406 11.982 9.946 16.5 5.347 9.512 12.554 19.402 22.593 31.007 9.619 11.118 13.18 16.915 19.9 32.39 7.302 16.815 9.706 20.854 16.21 27.233 8.43 8.268 14.179 11.621 31.966 18.647 5.933 2.344 12.683 5.72 15 7.503 8.492 6.535 17.678 20.57 17.702 27.05.022 5.862-6.765 10.009-18.49 11.298-8.71.957-42.41 1.35-58.5.681m129.283-8.056c-24.031-.61-24.453-.748-24.645-8.05-.086-3.269.406-4.606 2.237-6.089 2.152-1.742 4.235-1.9 25.1-1.9 21.287 0 22.92.13 25.313 2.012 3.044 2.394 4.293 7.033 2.698 10.014-1.074 2.007-6.967 5.232-8.704 4.763-.43-.116-10.33-.453-21.999-.75m-34.536-39.023c-2.746-2.16-4.167-6.117-3.243-9.03.322-1.014 5.853-6.098 12.29-11.3 6.439-5.2 16.206-13.34 21.706-18.089 10.375-8.957 12.77-10.248 17.029-9.179 3.142.789 6.001 6.334 5.106 9.902-.404 1.607-5.11 6.275-12.885 12.78-6.738 5.638-15.4 13.035-19.25 16.44-12.01 10.618-15.972 12.237-20.753 8.476m-33.824-20.939c-2.175-2.175-2.923-3.868-2.923-6.615 0-4.364 10.46-41.953 12.582-45.212 1.872-2.877 8.149-3.098 11.475-.405 3.225 2.612 2.874 5.81-3.232 29.416-4.321 16.71-5.708 20.719-7.953 22.99-3.487 3.527-6.297 3.478-9.949-.174m-1387.89-15.306c-1.446-.76-2.867-2.737-3.438-4.783-1.127-4.042-2.147-4.949-5.595-4.978-4.137-.034-10.007-2.017-12.065-4.074-3.57-3.57-2.57-8.917 4.752-25.39 7.244-16.299 18.412-37.264 23.812-44.698 4.41-6.073 8.928-9.434 14.784-11 4.069-1.089 6.02-1.012 13.671.534 11.23 2.27 14.115 1.685 18.309-3.714 1.78-2.292 7.045-7.767 11.698-12.167 30.218-28.57 34.984-34.467 52.533-65 24.282-42.247 38.907-76.446 52.083-121.793 3.07-10.564 6.63-20.825 7.912-22.801 2.888-4.45 5.994-5.946 21.633-10.42 35.105-10.044 54.647-17.566 74.878-28.822 21.717-12.082 37.259-23.97 47.383-36.244 14.608-17.71 23.463-47.124 29.631-98.42 4.02-33.43 4.626-37.315 8.028-51.5 2.863-11.94 9.935-37.187 11.485-41l.812-2-2.294 2c-4.071 3.548-14.102 16.36-21.625 27.62-8.654 12.953-15.709 27.042-25.306 50.54-15.824 38.744-28.54 59.333-47.687 77.214-9.62 8.984-19 15.215-28.838 19.153-12.364 4.951-44.589 10.84-44.589 8.148 0-2.176 4.233-11.789 7.72-17.534 9.796-16.136 21.25-26.975 33.914-32.092 20.124-8.13 30.072-14.811 40.367-27.109 5.787-6.913 13.922-24.08 20.43-43.116 12.061-35.278 21.947-56.416 36.63-78.324 12.3-18.355 23.018-30.22 45.439-50.306 9.9-8.87 29.925-27.865 44.5-42.212 28.977-28.524 35.228-34.037 47.77-42.128 12.92-8.335 24.462-13.787 57.23-27.032 14.576-5.891 26.983-12.227 36.5-18.637 14.687-9.893 34.033-28.513 52.186-50.227 39.77-47.571 83.662-71.832 129.814-71.75 15.319.026 26.24 1.88 40.741 6.915 27.307 9.48 42.647 21.241 79.18 60.708 28.358 30.633 41.467 37.312 94.579 48.19 29.967 6.136 51.271 14.61 73.5 29.232 12.576 8.273 33.262 28.776 46.155 45.747 9.527 12.541 17.75 20.958 32.845 33.623 20.867 17.508 42.529 28.755 64.5 33.489 12.396 2.67 33.575 2.485 45.207-.397 20.304-5.03 36.118-13.772 51.378-28.4 18.549-17.779 30.736-36.72 46.22-71.831 9.36-21.223 22.855-43.504 37.06-61.187l6.992-8.703-3.286-3.586c-7.215-7.878-12.334-23.839-11.068-34.508 1.084-9.135 3.592-17.777 5.715-19.692 1.622-1.464 3.65-1.795 10.643-1.74 13.967.11 19.044 3.568 29.995 20.432 1.964 3.025 3.699 5.686 3.855 5.914s4.448-1.008 9.536-2.746c19.04-6.502 38.488-6.855 56.753-1.029 3.575 1.14 13.665 5.936 22.422 10.658s18.041 9.134 20.632 9.806c4.893 1.27 10.586 1.999 42.446 5.436 41.854 4.514 67.612 12.888 81.083 26.358 6.953 6.953 9.88 12.171 15.403 27.457 2.116 5.855 5.572 14.47 7.68 19.146 3.3 7.315 3.834 9.5 3.834 15.676 0 8.399-1.775 11.653-8.064 14.781-3.058 1.52-5.833 1.931-12.436 1.84-20.364-.281-39.736-6.295-61.812-19.188-6.891-4.024-10.508-5.02-11.632-3.2-.31.5-.322 1.538-.027 2.305.54 1.406 18.134 13.445 26.471 18.113 12.957 7.254 31.112 12.673 42.458 12.673 6.116 0 6.72.85 4.127 5.8-4.133 7.89-14.335 13.533-24.585 13.6-9.015.058-15.497-2.44-27.71-10.681l-10.397-7.017-10.234.626c-15.574.953-38.166 5.137-57.103 10.575-25.242 7.249-27.204 7.576-45.056 7.505-14.47-.057-16.858-.325-24.973-2.796-12.424-3.784-19.898-8.01-27.609-15.612-6.84-6.745-11.96-14.961-16.042-25.75-3.01-7.955-4.876-8.202-4.876-.645 0 17.396 10.746 36.124 26.827 46.754 13.48 8.91 24.054 11.973 41.673 12.07l13 .07-15.595 15.5c-16.079 15.98-27.48 30.244-43.332 54.215-17.222 26.039-46.088 56.852-72.573 77.467-28.798 22.415-71.42 43.95-106.622 53.872-18.568 5.233-40.663 10.14-53.91 11.973-21.601 2.989-50.552 6.147-50.915 5.555-.196-.32.259-4.111 1.01-8.426 6.588-37.817-1.938-79.653-22.394-109.885-2.705-3.999-5.951-8.17-7.213-9.27l-2.295-2 .777 2c.427 1.1 3.42 9.943 6.653 19.652 8.178 24.568 9.282 31.519 9.266 58.348-.014 23.871-1.427 34.018-7.038 50.5-3.86 11.335-12.001 26.515-17.331 32.311l-4.755 5.17-13.866-3.402a4085 4085 0 0 1-15.867-3.914c-1.829-.468-1.871-.355-.5 1.32 4.488 5.482 44.74 33.957 86.805 61.408 35.145 22.936 44.774 28.506 73.729 42.656 23.89 11.675 25.306 12.526 31 18.637 10.747 11.534 13.922 21.29 13.27 40.774-.525 15.692-2.008 19.355-12.037 29.75-8.75 9.067-11.222 10.707-25.328 16.805-18.494 7.993-30.238 14.451-47.939 26.36-28.405 19.112-42.401 30.338-64.886 52.044-20.433 19.726-23.648 21.57-37.614 21.576-8.805 0-10.52-.353-23.453-4.88l-13.953-4.886-28.047-.117c-27.968-.117-28.066-.125-34.743-2.8-12.489-5.003-23.804-14.009-23.804-18.946 0-6.177 7.365-14.168 21.725-23.573 31.24-20.46 57.894-26.591 69.874-16.073 1.86 1.634 5.687 6.786 8.504 11.45s5.803 8.74 6.637 9.06c.887.34 2.189-.304 3.138-1.553 1.068-1.406 5.552-3.378 13.122-5.771 20.775-6.568 45.202-20.59 74-42.483 25.63-19.484 39.998-33.49 42.006-40.946 4.043-15.012-13.53-25.255-79.006-46.05-10.725-3.406-30.075-10.013-43-14.682-46.48-16.792-62.888-21.637-78.796-23.269-13.355-1.37-19.458-3.047-25.397-6.981-9.198-6.092-13.314-16.256-16.806-41.495-3.428-24.779-6.866-44.495-10.046-57.604-3.451-14.224-7.682-27.952-9.051-29.363-.584-.602-.729 3.357-.384 10.5 1.563 32.378 2.37 86.416 1.302 87.077-1.958 1.21-15.25 2.835-32.675 3.995-27.83 1.853-65.169-1.142-96.647-7.75-39.792-8.355-94.066-26.102-120.758-39.488-20.56-10.31-69.6-33.195-77.242-36.045-12.098-4.511-32.739-9.522-44.5-10.802-17.554-1.911-17.285-1.841-16.591-4.334 4.159-14.936 9.45-49.413 10.1-65.8.291-7.362.749-17.099 1.016-21.636.268-4.538.103-8.25-.367-8.25-1.745 0-4.315 8.214-11.133 35.583-16.208 65.067-30.79 109.228-44.714 135.417-16.905 31.794-36.988 54.585-60.706 68.888-13.122 7.915-21.198 10.93-43.105 16.095-42.55 10.032-54.2 13.582-94.5 28.797-54.228 20.474-58.946 22.993-80.5 42.973-11.08 10.27-28.223 28.305-39.209 41.247-10.77 12.688-29.51 42.226-44.727 70.5-36.777 68.333-36.42 67.847-54.064 73.525-14.728 4.74-18.556 7.769-41 32.45-9.988 10.982-17.982 17.386-27 21.626-7.4 3.48-13.15 4.412-16.466 2.67zm1644.967-772.195c0-2.192-12.135-11.76-19.673-15.512-10.843-5.396-18.327-5.245-18.327.372 0 4.554 5.083 7.595 20.196 12.08 16.102 4.78 17.804 5.072 17.804 3.06m-155.313-15.69c2.013-1.245 4.152-3.93 5.54-6.956 2.034-4.434 2.589-4.93 5.517-4.93 4.637 0 4.169-2.276-1.233-5.992-9.844-6.773-18.29-7.624-31.165-3.142-9.801 3.412-14.726 6.152-15.166 8.439-.272 1.414.514 1.696 4.734 1.696 4.758 0 5.204.224 7.444 3.75 6.223 9.793 15.585 12.538 24.329 7.134m-363.958 565.864a457 457 0 0 1-6.816-8.778c-4.937-6.55-27.715-32.597-39.739-45.441-10.815-11.554-25.7-29.355-25.052-29.961 1.3-1.216 62.264 17.832 96.378 30.114 19.477 7.013 25.62 10.043 28.133 13.879 1.536 2.345 1.484 2.661-1.042 6.306-1.463 2.111-5.457 6.091-8.875 8.845-8.732 7.033-35.454 27.076-37.709 28.283-1.563.836-2.44.297-5.278-3.247m-899.03-145.47c-3.75-.565-4.699-3.417-4.699-14.122 0-12.826.353-13.157 14.034-13.157 10.575 0 10.972.08 12.575 2.526 2.426 3.703 1.542 22.158-1.156 24.131-1.77 1.295-13.873 1.657-20.755.621m-51.563-7.196c-1.678-1.037-6.136-13.768-6.136-17.524 0-3.346.112-3.432 7.753-5.977 10.527-3.506 11.79-3.398 14.142 1.21 2.82 5.529 5.01 14.627 3.968 16.489-1.366 2.44-17.492 7.184-19.727 5.802m4.864-50.023c-6.325-3.209-12.351-6.779-13.392-7.933-1.805-2.002-1.815-2.292-.217-6.363 2.866-7.3 11.027-22.09 12.77-23.14 2.165-1.306 6.4.143 19.839 6.787 8.1 4.005 10.574 5.699 10.822 7.411.32 2.2-10.434 23.954-13.558 27.428-.866.962-2.292 1.726-3.169 1.698s-6.77-2.678-13.095-5.888" style="fill:#fff;fill-opacity:1"/><path d="M1722.236 1190.71a14.12 14.12 0 0 0-14.15 14.151v47.36a14.12 14.12 0 0 0 14.15 14.152h142.982c7.84 0 14.153-6.312 14.153-14.152v-47.36c0-7.84-6.312-14.152-14.153-14.152zm120.182 9.997c3.564 0 3.399 14.82 6.486 16.602s15.837-5.773 17.62-2.686c1.781 3.087-11.136 10.354-11.136 13.918s12.917 10.83 11.135 13.916-14.532-4.466-17.619-2.683c-3.087 1.782-2.922 16.601-6.486 16.601-3.565 0-3.398-14.82-6.485-16.601-3.087-1.783-15.837 5.77-17.619 2.683s11.133-10.351 11.133-13.916-12.915-10.83-11.133-13.918 14.532 4.468 17.62 2.686c3.086-1.783 2.92-16.602 6.484-16.602" style="opacity:1;fill:#fff;stroke-width:1.88976;stroke-linecap:round;stroke-linejoin:round;stroke-opacity:.75;fill-opacity:1"/><rect width="94.723" height="75.664" x="2056.995" y="1190.709" rx="14.152" ry="14.152" style="opacity:1;fill:#fff;stroke-width:1.88976;stroke-linecap:round;stroke-linejoin:round;stroke-opacity:.75;fill-opacity:1"/><rect width="444.866" height="75.664" x="1014.236" y="1190.709" rx="14.152" ry="14.152" style="opacity:1;fill:#fff;stroke-width:1.88976;stroke-linecap:round;stroke-linejoin:round;stroke-opacity:.75;fill-opacity:1"/><rect width="198.43" height="75.664" x="333.074" y="1190.709" rx="14.152" ry="14.152" style="opacity:1;fill:#fff;stroke-width:1.88976;stroke-linecap:round;stroke-linejoin:round;stroke-opacity:.75;fill-opacity:1"/><path d="m1879.37 1228.54 88.813-31.831 88.812 31.832" style="opacity:1;fill:none;stroke:#fff;stroke-width:9.99996;stroke-linecap:round;stroke-linejoin:round;stroke-dasharray:none;stroke-opacity:1"/><path d="m1459.102 1228.54 124.491-31.831 124.492 31.832" style="opacity:1;fill:none;stroke:#fff;stroke-width:10;stroke-linecap:round;stroke-linejoin:round;stroke-dasharray:none;stroke-opacity:1"/><path d="m531.504 1228.54 241.366-31.831 241.366 31.832" style="opacity:1;fill:none;stroke:#fff;stroke-width:9.99999;stroke-linecap:round;stroke-linejoin:round;stroke-dasharray:none;stroke-opacity:1"/></g></svg>